#Build_04_(1)_19872_23.obj

v -3.755548 0 3.354255
v -3.755548 3.498852 3.354255
v -3.75555 3.498852 2.187996
v -3.75555 0 2.187996
v -5.187862 0 2.187998
v -5.187862 3.498852 2.187998
v -5.18786 3.498852 3.354258
v -5.18786 0 3.354258
v -5.18786 0 3.354258
v -5.18786 3.498852 3.354258
v -3.755548 3.498852 3.354255
v -3.755548 0 3.354255
v 6.08451 2.720125 3.412586
v 6.084507 2.720125 2.129627
v 1.264256 2.720123 2.129636
v 1.264258 2.720123 3.412595
v 6.08451 3.495819 3.412586
v 1.264258 3.495819 3.412595
v 1.264256 3.495819 2.129636
v 6.084507 3.495819 2.129627
v 6.08451 2.720125 3.412586
v 6.08451 3.495819 3.412586
v 6.084507 3.495819 2.129627
v 6.084507 2.720125 2.129627
v 6.084507 2.720125 2.129627
v 6.084507 3.495819 2.129627
v 1.264256 3.495819 2.129636
v 1.264256 2.720123 2.129636
v 1.264256 2.720123 2.129636
v 1.264256 3.495819 2.129636
v 1.264258 3.495819 3.412595
v 1.264258 2.720123 3.412595
v 1.264258 2.720123 3.412595
v 1.264258 3.495819 3.412595
v 6.08451 3.495819 3.412586
v 6.08451 2.720125 3.412586
v 4.637275 0 3.354239
v 4.637275 3.498852 3.354239
v 4.637272 3.498852 2.187979
v 4.637272 0 2.187979
v 3.081791 0 2.187982
v 3.081791 3.498852 2.187982
v 3.081794 3.498852 3.354242
v 3.081794 0 3.354242
v 3.081794 0 3.354242
v 3.081794 3.498852 3.354242
v 4.637275 3.498852 3.354239
v 4.637275 0 3.354239
v 6.250007 3.498852 3.498889
v 6.249993 3.498852 -3.498791
v -6.250007 3.498852 -3.498889
v -6.249993 3.498852 3.498791
v 6.250007 3.498852 3.498889
v 2.686889 5.364906 -0.1252493
v 6.249993 3.498852 -3.498791
v 6.249993 3.498852 -3.498791
v 2.686889 5.364906 -0.1252493
v -2.824493 5.364906 -0.005975974
v -6.250007 3.498852 -3.498889
v -6.250007 3.498852 -3.498889
v -2.824493 5.364906 -0.005975974
v -6.249993 3.498852 3.498791
v -6.249993 3.498852 3.498791
v -2.824493 5.364906 -0.005975974
v 2.686889 5.364906 -0.1252493
v 6.250007 3.498852 3.498889
v 5.831426 0 2.485951
v 5.831414 0 -3.34547
v -5.831428 0 -3.345448
v -5.831416 0 2.485973
v 5.831426 3.498852 2.485951
v -5.831416 3.498852 2.485973
v -5.831428 3.498852 -3.345448
v 5.831414 3.498852 -3.34547
v 5.831426 0 2.485951
v 5.831426 3.498852 2.485951
v 5.831414 3.498852 -3.34547
v 5.831414 0 -3.34547
v 5.831414 0 -3.34547
v 5.831414 3.498852 -3.34547
v -5.831428 3.498852 -3.345448
v -5.831428 0 -3.345448
v -5.831428 0 -3.345448
v -5.831428 3.498852 -3.345448
v -5.831416 3.498852 2.485973
v -5.831416 0 2.485973
v -5.831416 0 2.485973
v -5.831416 3.498852 2.485973
v 5.831426 3.498852 2.485951
v 5.831426 0 2.485951
v -1.950036 2.720125 3.412601
v -1.950039 2.720125 2.129642
v -6.014522 2.720125 2.12965
v -6.01452 2.720125 3.412487
v -1.950036 3.495821 3.412601
v -6.01452 3.495821 3.412487
v -6.014522 3.495821 2.12965
v -1.950039 3.495821 2.129642
v -1.950036 2.720125 3.412601
v -1.950036 3.495821 3.412601
v -1.950039 3.495821 2.129642
v -1.950039 2.720125 2.129642
v -1.950039 2.720125 2.129642
v -1.950039 3.495821 2.129642
v -6.014522 3.495821 2.12965
v -6.014522 2.720125 2.12965
v -6.014522 2.720125 2.12965
v -6.014522 3.495821 2.12965
v -6.01452 3.495821 3.412487
v -6.01452 2.720125 3.412487
v -6.01452 2.720125 3.412487
v -6.01452 3.495821 3.412487
v -1.950036 3.495821 3.412601
v -1.950036 2.720125 3.412601

vn 1 5.960464E-08 2.145767E-06
vn 1 5.960464E-08 2.145767E-06
vn 1 5.960464E-08 2.145767E-06
vn 1 5.960464E-08 2.145767E-06
vn -1 -5.960464E-08 -2.145767E-06
vn -1 -5.960464E-08 -2.145767E-06
vn -1 -5.960464E-08 -2.145767E-06
vn -1 -5.960464E-08 -2.145767E-06
vn -2.145767E-06 0 1
vn -2.145767E-06 0 1
vn -2.145767E-06 0 1
vn -2.145767E-06 0 1
vn 0 -1 0
vn 0 -1 0
vn 0 -1 0
vn 0 -1 0
vn 0 1 0
vn 0 1 0
vn 0 1 0
vn 0 1 0
vn 1 5.960464E-08 2.145767E-06
vn 1 5.960464E-08 2.145767E-06
vn 1 5.960464E-08 2.145767E-06
vn 1 5.960464E-08 2.145767E-06
vn 2.145767E-06 0 -1
vn 2.145767E-06 0 -1
vn 2.145767E-06 0 -1
vn 2.145767E-06 0 -1
vn -1 -5.960464E-08 -2.145767E-06
vn -1 -5.960464E-08 -2.145767E-06
vn -1 -5.960464E-08 -2.145767E-06
vn -1 -5.960464E-08 -2.145767E-06
vn -2.145767E-06 0 1
vn -2.145767E-06 0 1
vn -2.145767E-06 0 1
vn -2.145767E-06 0 1
vn 1 0 2.145767E-06
vn 1 0 2.145767E-06
vn 1 0 2.145767E-06
vn 1 0 2.145767E-06
vn -1 0 -2.145767E-06
vn -1 0 -2.145767E-06
vn -1 0 -2.145767E-06
vn -1 0 -2.145767E-06
vn -2.145767E-06 0 1
vn -2.145767E-06 0 1
vn -2.145767E-06 0 1
vn -2.145767E-06 0 1
vn 0 -1 0
vn 0 -1 0
vn 0 -1 0
vn 0 -1 0
vn 0.4545898 0.890625 1.430511E-06
vn 0.4545898 0.890625 5.960464E-07
vn 0.4545898 0.890625 8.34465E-07
vn -0.005195618 0.8759766 -0.4819336
vn -0.01039124 0.8701172 -0.4926758
vn -0.001706123 0.8798828 -0.4748535
vn 1.162291E-05 0.8818359 -0.4711914
vn -0.46875 0.8833008 -1.728535E-06
vn -0.46875 0.8833008 -1.370907E-06
vn -0.46875 0.8833008 -1.728535E-06
vn 0.005088806 0.8837891 0.4680176
vn 0.01010132 0.878418 0.4777832
vn 0.00180912 0.887207 0.4614258
vn -3.814697E-06 0.8891602 0.4577637
vn 0 -1 0
vn 0 -1 0
vn 0 -1 0
vn 0 -1 0
vn 0 1 0
vn 0 1 0
vn 0 1 0
vn 0 1 0
vn 1 5.960464E-08 2.145767E-06
vn 1 5.960464E-08 2.145767E-06
vn 1 5.960464E-08 2.145767E-06
vn 1 5.960464E-08 2.145767E-06
vn 2.145767E-06 0 -1
vn 2.145767E-06 0 -1
vn 2.145767E-06 0 -1
vn 2.145767E-06 0 -1
vn -1 -5.960464E-08 -2.145767E-06
vn -1 -5.960464E-08 -2.145767E-06
vn -1 -5.960464E-08 -2.145767E-06
vn -1 -5.960464E-08 -2.145767E-06
vn -2.145767E-06 0 1
vn -2.145767E-06 0 1
vn -2.145767E-06 0 1
vn -2.145767E-06 0 1
vn 0 -1 0
vn 0 -1 0
vn 0 -1 0
vn 0 -1 0
vn 0 1 0
vn 0 1 0
vn 0 1 0
vn 0 1 0
vn 1 5.960464E-08 2.145767E-06
vn 1 5.960464E-08 2.145767E-06
vn 1 5.960464E-08 2.145767E-06
vn 1 5.960464E-08 2.145767E-06
vn 2.145767E-06 0 -1
vn 2.145767E-06 0 -1
vn 2.145767E-06 0 -1
vn 2.145767E-06 0 -1
vn -1 -5.960464E-08 -2.145767E-06
vn -1 -5.960464E-08 -2.145767E-06
vn -1 -5.960464E-08 -2.145767E-06
vn -1 -5.960464E-08 -2.145767E-06
vn -2.145767E-06 0 1
vn -2.145767E-06 0 1
vn -2.145767E-06 0 1
vn -2.145767E-06 0 1

vt 0.3383789 0.002399445
vt 0.3383789 0.7036133
vt 0.425293 0.7036133
vt 0.425293 0.002399445
vt 0.3383789 0.002300262
vt 0.3383789 0.7036133
vt 0.425293 0.7036133
vt 0.425293 0.002300262
vt 0.05950928 0.002799988
vt 0.05950928 0.7080078
vt 0.1734619 0.7080078
vt 0.1734619 0.002799988
vt 0.6625977 0.5561523
vt 0.6625977 0.699707
vt 0.7333984 0.699707
vt 0.7333984 0.5561523
vt 0.7333984 0.5556641
vt 0.6625977 0.5556641
vt 0.6625977 0.6992188
vt 0.7333984 0.6992188
vt 0.6621094 0.5556641
vt 0.6621094 0.7001953
vt 0.7348633 0.7001953
vt 0.7348633 0.5556641
vt 0.6137695 0.5541992
vt 0.6137695 0.7006836
vt 0.9975586 0.7006836
vt 0.9975586 0.5541992
vt 0.6621094 0.5556641
vt 0.6621094 0.7001953
vt 0.7348633 0.7001953
vt 0.7348633 0.5556641
vt 0.6137695 0.5541992
vt 0.6137695 0.7006836
vt 0.9970703 0.7006836
vt 0.9970703 0.5541992
vt 0.3383789 0.002399445
vt 0.3383789 0.7036133
vt 0.425293 0.7036133
vt 0.425293 0.002399445
vt 0.3383789 0.002300262
vt 0.3383789 0.7036133
vt 0.425293 0.7036133
vt 0.425293 0.002300262
vt 0.7641602 0.0004000664
vt 0.7641602 0.7075195
vt 0.894043 0.7075195
vt 0.894043 0.0004000664
vt 0.1036987 0.7104492
vt 0.5932617 0.7104492
vt 0.5932617 0.7104492
vt 0.1036987 0.7104492
vt 0.1036987 0.7104492
vt 0.3486328 0.9951172
vt 0.5932617 0.7104492
vt 0.03050232 0.7109375
vt 0.2805176 0.9956055
vt 0.6933594 0.9956055
vt 0.9472656 0.7094727
vt 0.1038818 0.7104492
vt 0.3486328 0.9951172
vt 0.59375 0.7104492
vt 0.03039551 0.7109375
vt 0.2805176 0.9956055
vt 0.6933594 0.9956055
vt 0.9472656 0.7094727
vt 0.2756348 0.01879883
vt 0.2756348 0.2282715
vt 0.6914063 0.2282715
vt 0.6914063 0.01879883
vt 0.6928711 0.02430725
vt 0.2770996 0.02430725
vt 0.2770996 0.2337646
vt 0.6928711 0.2337646
vt 0.3395996 0.00150013
vt 0.3395996 0.7070313
vt 0.6083984 0.7070313
vt 0.6083984 0.00150013
vt 0.2030029 0.001299858
vt 0.2030029 0.2462158
vt 0.762207 0.2462158
vt 0.762207 0.001299858
vt 0.6083984 0.001399994
vt 0.6083984 0.7070313
vt 0.3395996 0.7070313
vt 0.3395996 0.001399994
vt 0.002599716 0.001199722
vt 0.002599716 0.7060547
vt 0.9985352 0.7060547
vt 0.9985352 0.001199722
vt 0.2583008 0.5629883
vt 0.2583008 0.706543
vt 0.3293457 0.706543
vt 0.3293457 0.5629883
vt 0.3291016 0.5625
vt 0.2583008 0.5625
vt 0.2583008 0.7060547
vt 0.3291016 0.7060547
vt 0.2578125 0.5625
vt 0.2578125 0.7070313
vt 0.3310547 0.7070313
vt 0.3310547 0.5625
vt 0.0005998611 0.5620117
vt 0.0005998611 0.7075195
vt 0.3310547 0.7075195
vt 0.3310547 0.5620117
vt 0.2578125 0.5620117
vt 0.2578125 0.7070313
vt 0.3308105 0.7070313
vt 0.3308105 0.5620117
vt 0.0005998611 0.5620117
vt 0.0005998611 0.7075195
vt 0.3310547 0.7075195
vt 0.3310547 0.5620117

g Build_04_(1)_19872_23
usemtl Build_04_(1)_19872_23
usemap Build_04_(1)_19872_23
f 1/1/1 3/3/3 2/2/2
f 1/1/1 4/4/4 3/3/3
f 5/5/5 7/7/7 6/6/6
f 5/5/5 8/8/8 7/7/7
f 9/9/9 11/11/11 10/10/10
f 9/9/9 12/12/12 11/11/11
f 13/13/13 15/15/15 14/14/14
f 13/13/13 16/16/16 15/15/15
f 17/17/17 19/19/19 18/18/18
f 17/17/17 20/20/20 19/19/19
f 21/21/21 23/23/23 22/22/22
f 21/21/21 24/24/24 23/23/23
f 25/25/25 27/27/27 26/26/26
f 25/25/25 28/28/28 27/27/27
f 29/29/29 31/31/31 30/30/30
f 29/29/29 32/32/32 31/31/31
f 33/33/33 35/35/35 34/34/34
f 33/33/33 36/36/36 35/35/35
f 37/37/37 39/39/39 38/38/38
f 37/37/37 40/40/40 39/39/39
f 41/41/41 43/43/43 42/42/42
f 41/41/41 44/44/44 43/43/43
f 45/45/45 47/47/47 46/46/46
f 45/45/45 48/48/48 47/47/47
f 49/49/49 51/51/51 50/50/50
f 49/49/49 52/52/52 51/51/51
f 53/53/53 55/55/55 54/54/54
f 56/56/56 58/58/58 57/57/57
f 56/56/56 59/59/59 58/58/58
f 60/60/60 62/62/62 61/61/61
f 63/63/63 65/65/65 64/64/64
f 63/63/63 66/66/66 65/65/65
f 67/67/67 69/69/69 68/68/68
f 67/67/67 70/70/70 69/69/69
f 71/71/71 73/73/73 72/72/72
f 71/71/71 74/74/74 73/73/73
f 75/75/75 77/77/77 76/76/76
f 75/75/75 78/78/78 77/77/77
f 79/79/79 81/81/81 80/80/80
f 79/79/79 82/82/82 81/81/81
f 83/83/83 85/85/85 84/84/84
f 83/83/83 86/86/86 85/85/85
f 87/87/87 89/89/89 88/88/88
f 87/87/87 90/90/90 89/89/89
f 91/91/91 93/93/93 92/92/92
f 91/91/91 94/94/94 93/93/93
f 95/95/95 97/97/97 96/96/96
f 95/95/95 98/98/98 97/97/97
f 99/99/99 101/101/101 100/100/100
f 99/99/99 102/102/102 101/101/101
f 103/103/103 105/105/105 104/104/104
f 103/103/103 106/106/106 105/105/105
f 107/107/107 109/109/109 108/108/108
f 107/107/107 110/110/110 109/109/109
f 111/111/111 113/113/113 112/112/112
f 111/111/111 114/114/114 113/113/113
