#wood_plank_1_20037_67.obj

v -0.9716749 0.02150297 0.1448894
v -0.9718419 -0.01231098 0.1460195
v -0.9743033 -0.02150393 -0.1290239
v -0.9741363 0.01231003 -0.130154
v -0.9741363 0.01231003 -0.130154
v -0.9743033 -0.02150393 -0.1290239
v 1.065686 -0.02138805 -0.1165299
v 1.065587 0.009397984 -0.1180077
v 1.065587 0.009397984 -0.1180077
v 1.065686 -0.02138805 -0.1165299
v 1.061209 -0.009398937 0.1338568
v 1.061125 0.02138805 0.1323819
v 1.061125 0.02138805 0.1323819
v 1.061209 -0.009398937 0.1338568
v -0.9718419 -0.01231098 0.1460195
v -0.9716749 0.02150297 0.1448894
v -0.9718419 -0.01231098 0.1460195
v 1.061209 -0.009398937 0.1338568
v 1.065686 -0.02138805 -0.1165299
v -0.9743033 -0.02150393 -0.1290239
v 1.061125 0.02138805 0.1323819
v -0.9716749 0.02150297 0.1448894
v -0.9741363 0.01231003 -0.130154
v 1.065587 0.009397984 -0.1180077

vn -0.9643555 0.004966736 0.2648926
vn -0.9643555 0.004966736 0.2648926
vn -0.9643555 0.004966736 0.2648926
vn -0.9643555 0.004966736 0.2648926
vn -0.2504883 -0.05587769 -0.9663086
vn -0.2504883 -0.05587769 -0.9663086
vn -0.2504883 -0.05587769 -0.9663086
vn -0.2504883 -0.05587769 -0.9663086
vn 0.9692383 0.003679276 -0.24646
vn 0.9692383 0.003679276 -0.24646
vn 0.9692383 0.003679276 -0.24646
vn 0.9692383 0.003679276 -0.24646
vn 0.2666016 0.05584717 0.9624023
vn 0.2666016 0.05584717 0.9624023
vn 0.2666016 0.05584717 0.9624023
vn 0.2666016 0.05584717 0.9624023
vn 0.008239746 -0.9995117 0.02789307
vn 0.008239746 -0.9995117 0.02789307
vn 0.008239746 -0.9995117 0.02789307
vn 0.008239746 -0.9995117 0.02789307
vn -0.006809235 0.9995117 -0.02827454
vn -0.006809235 0.9995117 -0.02827454
vn -0.006809235 0.9995117 -0.02827454
vn -0.006809235 0.9995117 -0.02827454

vt 0.01499939 5.298853E-05
vt 5.298853E-05 5.298853E-05
vt 5.298853E-05 0.1216431
vt 0.01499939 0.1216431
vt 0.01499939 0.1216431
vt 0.01503754 0.1385498
vt 0.9848633 0.1385498
vt 0.9848633 0.1216431
vt 0.9848633 0.1216431
vt 1 0.1216431
vt 1 5.298853E-05
vt 0.9848633 5.298853E-05
vt 0.9848633 0.2770996
vt 0.9848633 0.2602539
vt 0.01503754 0.2602539
vt 0.01506805 0.2770996
vt 0.01503754 0.2602539
vt 0.9848633 0.2602539
vt 0.9848633 0.1385498
vt 0.01503754 0.1385498
vt 0.9848633 5.298853E-05
vt 0.01499939 5.298853E-05
vt 0.01499939 0.1216431
vt 0.9848633 0.1216431

g wood_plank_1_20037_67
usemtl wood_plank_1_20037_67
usemap wood_plank_1_20037_67
f 1/1/1 3/3/3 2/2/2
f 1/1/1 4/4/4 3/3/3
f 5/5/5 7/7/7 6/6/6
f 5/5/5 8/8/8 7/7/7
f 9/9/9 11/11/11 10/10/10
f 9/9/9 12/12/12 11/11/11
f 13/13/13 15/15/15 14/14/14
f 13/13/13 16/16/16 15/15/15
f 17/17/17 19/19/19 18/18/18
f 17/17/17 20/20/20 19/19/19
f 21/21/21 23/23/23 22/22/22
f 21/21/21 24/24/24 23/23/23
