#wood_bridge_step_1_19914_56.obj

v -0.7359495 0.06870779 0.3771417
v -0.7359571 0.06870779 -0.2534159
v -0.7359571 0.0003560384 -0.2534159
v -0.7359495 0.00035731 0.3771417
v -0.7471744 0.06250509 0.3127571
v -0.7471731 -0.1481501 0.122287
v -0.7471722 -0.1939901 0.1729853
v -0.7471735 0.01666578 0.3634554
v -0.8043032 0.06870779 -0.2534257
v -0.8043007 0.06870779 0.3771516
v -0.8043007 0.00035731 0.3771516
v -0.8043032 0.0003560384 -0.2534257
v -0.8043007 0.06870779 0.3771516
v -0.7359495 0.06870779 0.3771417
v -0.7359495 0.00035731 0.3771417
v -0.8043007 0.00035731 0.3771516
v -0.7359495 0.00035731 0.3771417
v -0.7359571 0.0003560384 -0.2534159
v -0.8043032 0.0003560384 -0.2534257
v -0.8043007 0.00035731 0.3771516
v -0.8043007 0.06870779 0.3771516
v -0.8043032 0.06870779 -0.2534257
v -0.7359571 0.06870779 -0.2534159
v -0.7359495 0.06870779 0.3771417
v -0.7930892 -0.1481501 0.1222845
v -0.7930906 0.06250509 0.3127545
v -0.7930897 0.01666578 0.3634528
v -0.7930936 -0.1939901 0.1730024
v -0.7471735 0.01666578 0.3634554
v -0.7471722 -0.1939901 0.1729853
v -0.7930936 -0.1939901 0.1730024
v -0.7930897 0.01666578 0.3634528
v -0.7930906 0.06250509 0.3127545
v -0.7930892 -0.1481501 0.1222845
v -0.7471731 -0.1481501 0.122287
v -0.7471744 0.06250509 0.3127571
v 0.7359584 0.06870779 0.3771389
v 0.7359584 0.00035731 0.3771389
v 0.7359507 0.0003560384 -0.2534188
v 0.7359507 0.06870779 -0.2534188
v 0.7471685 0.06250509 0.3127418
v 0.7471694 0.01666578 0.3634401
v 0.7471852 -0.1939901 0.1729949
v 0.7471843 -0.1481501 0.1222966
v 0.804302 0.06870779 -0.2534287
v 0.804302 0.0003560384 -0.2534287
v 0.8043044 0.00035731 0.3771486
v 0.8043044 0.06870779 0.3771486
v 0.8043044 0.06870779 0.3771486
v 0.8043044 0.00035731 0.3771486
v 0.7359584 0.00035731 0.3771389
v 0.7359584 0.06870779 0.3771389
v 0.7359584 0.00035731 0.3771389
v 0.8043044 0.00035731 0.3771486
v 0.804302 0.0003560384 -0.2534287
v 0.7359507 0.0003560384 -0.2534188
v 0.8043044 0.06870779 0.3771486
v 0.7359584 0.06870779 0.3771389
v 0.7359507 0.06870779 -0.2534188
v 0.804302 0.06870779 -0.2534287
v 0.7930807 -0.1481501 0.1222939
v 0.7930816 -0.1939901 0.1729922
v 0.7930856 0.01666578 0.3634426
v 0.7930847 0.06250509 0.3127444
v 0.7471694 0.01666578 0.3634401
v 0.7930856 0.01666578 0.3634426
v 0.7930816 -0.1939901 0.1729922
v 0.7471852 -0.1939901 0.1729949
v 0.7930847 0.06250509 0.3127444
v 0.7471685 0.06250509 0.3127418
v 0.7471843 -0.1481501 0.1222966
v 0.7930807 -0.1481501 0.1222939
v -1.000003 0.09636816 0.413577
v -1.000003 0.06554476 0.413577
v -0.9999949 0.06554476 0.1628692
v -0.9999949 0.09636688 0.1628692
v -0.9999949 0.09636688 0.1628692
v -0.9999949 0.06554476 0.1628692
v 0.999998 0.06554476 0.162867
v 0.999998 0.09636816 0.162867
v 0.999998 0.09636816 0.162867
v 0.999998 0.06554476 0.162867
v 1.00001 0.06554476 0.4135801
v 1.00001 0.09636816 0.4135801
v 1.00001 0.09636816 0.4135801
v 1.00001 0.06554476 0.4135801
v -1.000003 0.06554476 0.413577
v -1.000003 0.09636816 0.413577
v -1.000003 0.06554476 0.413577
v 1.00001 0.06554476 0.4135801
v 0.999998 0.06554476 0.162867
v -0.9999949 0.06554476 0.1628692
v 1.00001 0.09636816 0.4135801
v -1.000003 0.09636816 0.413577
v -0.9999949 0.09636688 0.1628692
v 0.999998 0.09636816 0.162867
v -0.9999987 0.09636688 0.1463761
v -0.9999987 0.06554476 0.1463761
v -0.9999908 0.06554476 -0.1043317
v -0.9999908 0.09636688 -0.1043317
v -0.9999908 0.09636688 -0.1043317
v -0.9999908 0.06554476 -0.1043317
v 1.000002 0.06554476 -0.1043339
v 1.000002 0.09636688 -0.1043339
v 1.000002 0.09636688 -0.1043339
v 1.000002 0.06554476 -0.1043339
v 0.9999942 0.06554476 0.1463739
v 0.9999942 0.09636816 0.1463739
v 0.9999942 0.09636816 0.1463739
v 0.9999942 0.06554476 0.1463739
v -0.9999987 0.06554476 0.1463761
v -0.9999987 0.09636688 0.1463761
v -0.9999987 0.06554476 0.1463761
v 0.9999942 0.06554476 0.1463739
v 1.000002 0.06554476 -0.1043339
v -0.9999908 0.06554476 -0.1043317
v 0.9999942 0.09636816 0.1463739
v -0.9999987 0.09636688 0.1463761
v -0.9999908 0.09636688 -0.1043317
v 1.000002 0.09636688 -0.1043339

vn 0.2587891 0 0.9658203
vn 0.2587891 0 0.9658203
vn 0.2587891 0 0.9658203
vn 0.2587891 0 0.9658203
vn 0.2587891 0 0.9658203
vn 0.2587891 0 0.9658203
vn 0.2587891 0 0.9658203
vn 0.2587891 0 0.9658203
vn -0.2587891 0 -0.9658203
vn -0.2587891 0 -0.9658203
vn -0.2587891 0 -0.9658203
vn -0.2587891 0 -0.9658203
vn -0.9658203 0 0.2587891
vn -0.9658203 0 0.2587891
vn -0.9658203 0 0.2587891
vn -0.9658203 0 0.2587891
vn 0 -1 0
vn 0 -1 0
vn 0 -1 0
vn 0 -1 0
vn 0 1 0
vn 0 1 0
vn 0 1 0
vn 0 1 0
vn -0.2587891 0 -0.9658203
vn -0.2587891 0 -0.9658203
vn -0.2587891 0 -0.9658203
vn -0.2587891 0 -0.9658203
vn -0.7163086 -0.6704102 0.1920166
vn -0.7163086 -0.6704102 0.1920166
vn -0.7163086 -0.6704102 0.1920166
vn -0.7163086 -0.6704102 0.1920166
vn 0.7163086 0.6704102 -0.1920166
vn 0.7163086 0.6704102 -0.1920166
vn 0.7163086 0.6704102 -0.1920166
vn 0.7163086 0.6704102 -0.1920166
vn -0.2587891 0 -0.9658203
vn -0.2587891 0 -0.9658203
vn -0.2587891 0 -0.9658203
vn -0.2587891 0 -0.9658203
vn -0.2587891 0 -0.9658203
vn -0.2587891 0 -0.9658203
vn -0.2587891 0 -0.9658203
vn -0.2587891 0 -0.9658203
vn 0.2587891 0 0.9658203
vn 0.2587891 0 0.9658203
vn 0.2587891 0 0.9658203
vn 0.2587891 0 0.9658203
vn -0.9658203 0 0.2587891
vn -0.9658203 0 0.2587891
vn -0.9658203 0 0.2587891
vn -0.9658203 0 0.2587891
vn 0 -1 0
vn 0 -1 0
vn 0 -1 0
vn 0 -1 0
vn 0 1 0
vn 0 1 0
vn 0 1 0
vn 0 1 0
vn 0.2587891 0 0.9658203
vn 0.2587891 0 0.9658203
vn 0.2587891 0 0.9658203
vn 0.2587891 0 0.9658203
vn -0.7163086 -0.6704102 0.1920166
vn -0.7163086 -0.6704102 0.1920166
vn -0.7163086 -0.6704102 0.1920166
vn -0.7163086 -0.6704102 0.1920166
vn 0.7163086 0.6704102 -0.1920166
vn 0.7163086 0.6704102 -0.1920166
vn 0.7163086 0.6704102 -0.1920166
vn 0.7163086 0.6704102 -0.1920166
vn -0.2587891 0 -0.9658203
vn -0.2587891 0 -0.9658203
vn -0.2587891 0 -0.9658203
vn -0.2587891 0 -0.9658203
vn 0.9658203 0 -0.2587891
vn 0.9658203 0 -0.2587891
vn 0.9658203 0 -0.2587891
vn 0.9658203 0 -0.2587891
vn 0.2587891 0 0.9658203
vn 0.2587891 0 0.9658203
vn 0.2587891 0 0.9658203
vn 0.2587891 0 0.9658203
vn -0.9658203 0 0.2587891
vn -0.9658203 0 0.2587891
vn -0.9658203 0 0.2587891
vn -0.9658203 0 0.2587891
vn 0 -1 0
vn 0 -1 0
vn 0 -1 0
vn 0 -1 0
vn 0 1 0
vn 0 1 0
vn 0 1 0
vn 0 1 0
vn -0.2587891 0 -0.9658203
vn -0.2587891 0 -0.9658203
vn -0.2587891 0 -0.9658203
vn -0.2587891 0 -0.9658203
vn 0.9658203 0 -0.2587891
vn 0.9658203 0 -0.2587891
vn 0.9658203 0 -0.2587891
vn 0.9658203 0 -0.2587891
vn 0.2587891 0 0.9658203
vn 0.2587891 0 0.9658203
vn 0.2587891 0 0.9658203
vn 0.2587891 0 0.9658203
vn -0.9658203 0 0.2587891
vn -0.9658203 0 0.2587891
vn -0.9658203 0 0.2587891
vn -0.9658203 0 0.2587891
vn 0 -1 0
vn 0 -1 0
vn 0 -1 0
vn 0 -1 0
vn 0 1 0
vn 0 1 0
vn 0 1 0
vn 0 1 0

vt 0.503418 0.9228516
vt 0.597168 0.9228516
vt 0.597168 0.9331055
vt 0.503418 0.9331055
vt 0.2247314 0.9267578
vt 0.2675781 0.9267578
vt 0.2675781 0.9370117
vt 0.2247314 0.9370117
vt 0.597168 0.9125977
vt 0.503418 0.9125977
vt 0.503418 0.9023438
vt 0.597168 0.9023438
vt 0.4931641 0.9433594
vt 0.4931641 0.9331055
vt 0.503418 0.9331055
vt 0.503418 0.9433594
vt 0.503418 0.9331055
vt 0.597168 0.9331055
vt 0.597168 0.9433594
vt 0.503418 0.9433594
vt 0.503418 0.9125977
vt 0.597168 0.9125977
vt 0.597168 0.9228516
vt 0.503418 0.9228516
vt 0.2675781 0.9199219
vt 0.2247314 0.9199219
vt 0.2247314 0.909668
vt 0.2675781 0.909668
vt 0.2247314 0.9370117
vt 0.2675781 0.9370117
vt 0.2675781 0.9438477
vt 0.2247314 0.9438477
vt 0.2247314 0.9199219
vt 0.2675781 0.9199219
vt 0.2675781 0.9267578
vt 0.2247314 0.9267578
vt 0.503418 0.9228516
vt 0.503418 0.9331055
vt 0.597168 0.9331055
vt 0.597168 0.9228516
vt 0.2247314 0.9267578
vt 0.2247314 0.9370117
vt 0.2675781 0.9370117
vt 0.2675781 0.9267578
vt 0.597168 0.9125977
vt 0.597168 0.9023438
vt 0.503418 0.9023438
vt 0.503418 0.9125977
vt 0.4931641 0.9433594
vt 0.503418 0.9433594
vt 0.503418 0.9331055
vt 0.4931641 0.9331055
vt 0.503418 0.9331055
vt 0.503418 0.9433594
vt 0.597168 0.9433594
vt 0.597168 0.9331055
vt 0.503418 0.9125977
vt 0.503418 0.9228516
vt 0.597168 0.9228516
vt 0.597168 0.9125977
vt 0.2675781 0.9199219
vt 0.2675781 0.909668
vt 0.2247314 0.909668
vt 0.2247314 0.9199219
vt 0.2247314 0.9370117
vt 0.2247314 0.9438477
vt 0.2675781 0.9438477
vt 0.2675781 0.9370117
vt 0.2247314 0.9199219
vt 0.2247314 0.9267578
vt 0.2675781 0.9267578
vt 0.2675781 0.9199219
vt 0.01499939 5.298853E-05
vt 5.298853E-05 5.298853E-05
vt 5.298853E-05 0.1216431
vt 0.01499939 0.1216431
vt 0.01499939 0.1216431
vt 0.01503754 0.1385498
vt 0.9848633 0.1385498
vt 0.9848633 0.1216431
vt 0.9848633 0.1216431
vt 1 0.1216431
vt 1 5.298853E-05
vt 0.9848633 5.298853E-05
vt 0.9848633 0.2770996
vt 0.9848633 0.2602539
vt 0.01503754 0.2602539
vt 0.01506805 0.2770996
vt 0.01503754 0.2602539
vt 0.9848633 0.2602539
vt 0.9848633 0.1385498
vt 0.01503754 0.1385498
vt 0.9848633 5.298853E-05
vt 0.01499939 5.298853E-05
vt 0.01499939 0.1216431
vt 0.9848633 0.1216431
vt 0.01499939 0.2858887
vt 5.298853E-05 0.2858887
vt 5.298853E-05 0.4074707
vt 0.01499939 0.4074707
vt 0.01499939 0.4074707
vt 0.01503754 0.4243164
vt 0.9848633 0.4243164
vt 0.9848633 0.4074707
vt 0.9848633 0.4074707
vt 1 0.4074707
vt 1 0.2858887
vt 0.9848633 0.2858887
vt 0.9848633 0.5629883
vt 0.9848633 0.5458984
vt 0.01503754 0.5458984
vt 0.01506805 0.5629883
vt 0.01503754 0.5458984
vt 0.9848633 0.5458984
vt 0.9848633 0.4243164
vt 0.01503754 0.4243164
vt 0.9848633 0.2858887
vt 0.01499939 0.2858887
vt 0.01499939 0.4074707
vt 0.9848633 0.4074707

g wood_bridge_step_1_19914_56
usemtl wood_bridge_step_1_19914_56
usemap wood_bridge_step_1_19914_56
f 1/1/1 3/3/3 2/2/2
f 1/1/1 4/4/4 3/3/3
f 5/5/5 7/7/7 6/6/6
f 5/5/5 8/8/8 7/7/7
f 9/9/9 11/11/11 10/10/10
f 9/9/9 12/12/12 11/11/11
f 13/13/13 15/15/15 14/14/14
f 13/13/13 16/16/16 15/15/15
f 17/17/17 19/19/19 18/18/18
f 17/17/17 20/20/20 19/19/19
f 21/21/21 23/23/23 22/22/22
f 21/21/21 24/24/24 23/23/23
f 25/25/25 27/27/27 26/26/26
f 25/25/25 28/28/28 27/27/27
f 29/29/29 31/31/31 30/30/30
f 29/29/29 32/32/32 31/31/31
f 33/33/33 35/35/35 34/34/34
f 33/33/33 36/36/36 35/35/35
f 37/37/37 39/39/39 38/38/38
f 37/37/37 40/40/40 39/39/39
f 41/41/41 43/43/43 42/42/42
f 41/41/41 44/44/44 43/43/43
f 45/45/45 47/47/47 46/46/46
f 45/45/45 48/48/48 47/47/47
f 49/49/49 51/51/51 50/50/50
f 49/49/49 52/52/52 51/51/51
f 53/53/53 55/55/55 54/54/54
f 53/53/53 56/56/56 55/55/55
f 57/57/57 59/59/59 58/58/58
f 57/57/57 60/60/60 59/59/59
f 61/61/61 63/63/63 62/62/62
f 61/61/61 64/64/64 63/63/63
f 65/65/65 67/67/67 66/66/66
f 65/65/65 68/68/68 67/67/67
f 69/69/69 71/71/71 70/70/70
f 69/69/69 72/72/72 71/71/71
f 73/73/73 75/75/75 74/74/74
f 73/73/73 76/76/76 75/75/75
f 77/77/77 79/79/79 78/78/78
f 77/77/77 80/80/80 79/79/79
f 81/81/81 83/83/83 82/82/82
f 81/81/81 84/84/84 83/83/83
f 85/85/85 87/87/87 86/86/86
f 85/85/85 88/88/88 87/87/87
f 89/89/89 91/91/91 90/90/90
f 89/89/89 92/92/92 91/91/91
f 93/93/93 95/95/95 94/94/94
f 93/93/93 96/96/96 95/95/95
f 97/97/97 99/99/99 98/98/98
f 97/97/97 100/100/100 99/99/99
f 101/101/101 103/103/103 102/102/102
f 101/101/101 104/104/104 103/103/103
f 105/105/105 107/107/107 106/106/106
f 105/105/105 108/108/108 107/107/107
f 109/109/109 111/111/111 110/110/110
f 109/109/109 112/112/112 111/111/111
f 113/113/113 115/115/115 114/114/114
f 113/113/113 116/116/116 115/115/115
f 117/117/117 119/119/119 118/118/118
f 117/117/117 120/120/120 119/119/119
