#wood_planks_1_20128_18.obj

v 0.9641727 0.02294692 -0.5809123
v 0.9649928 -0.007806876 -0.5827932
v 0.9695674 -0.02295001 -0.332587
v 0.9687474 0.007803167 -0.3307063
v 0.9687474 0.007803167 -0.3307063
v 0.9695674 -0.02295001 -0.332587
v -1.023083 -0.007760092 -0.321935
v -1.024896 0.02509711 -0.3240033
v -1.024896 0.02509711 -0.3240033
v -1.023083 -0.007760092 -0.321935
v -1.030406 -0.02509796 -0.5894976
v -1.032233 0.007762965 -0.5915798
v -1.032233 0.007762965 -0.5915798
v -1.030406 -0.02509796 -0.5894976
v 0.9649928 -0.007806876 -0.5827932
v 0.9641727 0.02294692 -0.5809123
v 0.9649928 -0.007806876 -0.5827932
v -1.030406 -0.02509796 -0.5894976
v -1.023083 -0.007760092 -0.321935
v 0.9695674 -0.02295001 -0.332587
v -1.032233 0.007762965 -0.5915798
v 0.9641727 0.02294692 -0.5809123
v 0.9687474 0.007803167 -0.3307063
v -1.024896 0.02509711 -0.3240033
v -0.971682 0.02150249 -0.03854746
v -0.9718402 -0.01231407 -0.03740644
v -0.9743001 -0.02150201 -0.3124661
v -0.9741418 0.01230711 -0.3135793
v -0.9741418 0.01230711 -0.3135793
v -0.9743001 -0.02150201 -0.3124661
v 1.065681 -0.02139031 -0.2999542
v 1.065595 0.009399288 -0.3014446
v 1.065595 0.009399288 -0.3014446
v 1.065681 -0.02139031 -0.2999542
v 1.061207 -0.009398564 -0.04958155
v 1.061121 0.02138481 -0.05104382
v 1.061121 0.02138481 -0.05104382
v 1.061207 -0.009398564 -0.04958155
v -0.9718402 -0.01231407 -0.03740644
v -0.971682 0.02150249 -0.03854746
v -0.9718402 -0.01231407 -0.03740644
v 1.061207 -0.009398564 -0.04958155
v 1.065681 -0.02139031 -0.2999542
v -0.9743001 -0.02150201 -0.3124661
v 1.061121 0.02138481 -0.05104382
v -0.971682 0.02150249 -0.03854746
v -0.9741418 0.01230711 -0.3135793
v 1.065595 0.009399288 -0.3014446
v 1.011416 0.007684899 -0.01847857
v 1.010539 -0.02476856 -0.01640635
v 1.005403 -0.007688854 0.2476317
v 1.006266 0.02476771 0.2455454
v 1.006266 0.02476771 0.2455454
v 1.005403 -0.007688854 0.2476317
v -0.9886721 -0.01819363 0.2395584
v -0.9885139 0.0126229 0.2402348
v -0.9885139 0.0126229 0.2402348
v -0.9886721 -0.01819363 0.2395584
v -0.986025 -0.01262151 -0.01109735
v -0.9858811 0.01819254 -0.01040672
v -0.9858811 0.01819254 -0.01040672
v -0.986025 -0.01262151 -0.01109735
v 1.010539 -0.02476856 -0.01640635
v 1.011416 0.007684899 -0.01847857
v 1.010539 -0.02476856 -0.01640635
v -0.986025 -0.01262151 -0.01109735
v -0.9886721 -0.01819363 0.2395584
v 1.005403 -0.007688854 0.2476317
v -0.9858811 0.01819254 -0.01040672
v 1.011416 0.007684899 -0.01847857
v 1.006266 0.02476771 0.2455454
v -0.9885139 0.0126229 0.2402348
v -1.033557 0.007690462 0.5237832
v -1.032679 -0.02476883 0.5217135
v -1.027543 -0.00768958 0.2576836
v -1.028407 0.02476598 0.2597672
v -1.028407 0.02476598 0.2597672
v -1.027543 -0.00768958 0.2576836
v 0.9665316 -0.01819186 0.2657578
v 0.9663877 0.01262083 0.2650779
v 0.9663877 0.01262083 0.2650779
v 0.9665316 -0.01819186 0.2657578
v 0.9638844 -0.01262281 0.5163904
v 0.9637406 0.01818927 0.5157102
v 0.9637406 0.01818927 0.5157102
v 0.9638844 -0.01262281 0.5163904
v -1.032679 -0.02476883 0.5217135
v -1.033557 0.007690462 0.5237832
v -1.032679 -0.02476883 0.5217135
v 0.9638844 -0.01262281 0.5163904
v 0.9665316 -0.01819186 0.2657578
v -1.027543 -0.00768958 0.2576836
v 0.9637406 0.01818927 0.5157102
v -1.033557 0.007690462 0.5237832
v -1.028407 0.02476598 0.2597672
v 0.9663877 0.01262083 0.2650779

vn 0.7231445 0.02241516 0.6904297
vn 0.7231445 0.02241516 0.6904297
vn 0.7231445 0.02241516 0.6904297
vn 0.7231445 0.02241516 0.6904297
vn -0.6791992 0.2619629 0.6855469
vn -0.6791992 0.2619629 0.6855469
vn -0.6791992 0.2619629 0.6855469
vn -0.6791992 0.2619629 0.6855469
vn -0.7363281 -0.04360962 -0.6748047
vn -0.7363281 -0.04360962 -0.6748047
vn -0.7363281 -0.04360962 -0.6748047
vn -0.7363281 -0.04360962 -0.6748047
vn 0.6855469 -0.2617188 -0.6791992
vn 0.6855469 -0.2617188 -0.6791992
vn 0.6855469 -0.2617188 -0.6791992
vn 0.6855469 -0.2617188 -0.6791992
vn -0.1855469 -0.9648438 0.1862793
vn -0.1855469 -0.9648438 0.1862793
vn -0.1855469 -0.9648438 0.1862793
vn -0.1855469 -0.9648438 0.1862793
vn 0.1862793 0.9648438 -0.1855469
vn 0.1862793 0.9648438 -0.1855469
vn 0.1862793 0.9648438 -0.1855469
vn 0.1862793 0.9648438 -0.1855469
vn -0.7124023 0.007072449 -0.7021484
vn -0.7124023 0.007072449 -0.7021484
vn -0.7124023 0.007072449 -0.7021484
vn -0.7124023 0.007072449 -0.7021484
vn 0.6791992 -0.2976074 -0.6708984
vn 0.6791992 -0.2976074 -0.6708984
vn 0.6791992 -0.2976074 -0.6708984
vn 0.6791992 -0.2976074 -0.6708984
vn 0.6958008 0.008125305 0.7182617
vn 0.6958008 0.008125305 0.7182617
vn 0.6958008 0.008125305 0.7182617
vn 0.6958008 0.008125305 0.7182617
vn -0.6708984 0.2976074 0.6791992
vn -0.6708984 0.2976074 0.6791992
vn -0.6708984 0.2976074 0.6791992
vn -0.6708984 0.2976074 0.6791992
vn -0.2098389 -0.9545898 0.2109375
vn -0.2098389 -0.9545898 0.2109375
vn -0.2098389 -0.9545898 0.2109375
vn -0.2098389 -0.9545898 0.2109375
vn 0.2109375 0.9545898 -0.2098389
vn 0.2109375 0.9545898 -0.2098389
vn 0.2109375 0.9545898 -0.2098389
vn 0.2109375 0.9545898 -0.2098389
vn 0.6875 -0.019104 0.7255859
vn 0.6875 -0.019104 0.7255859
vn 0.6875 -0.019104 0.7255859
vn 0.6875 -0.019104 0.7255859
vn -0.6811523 0.2800293 0.6762695
vn -0.6811523 0.2800293 0.6762695
vn -0.6811523 0.2800293 0.6762695
vn -0.6811523 0.2800293 0.6762695
vn -0.6992188 0.002260208 -0.715332
vn -0.6992188 0.002260208 -0.715332
vn -0.6992188 0.002260208 -0.715332
vn -0.6992188 0.002260208 -0.715332
vn 0.6762695 -0.2800293 -0.6811523
vn 0.6762695 -0.2800293 -0.6811523
vn 0.6762695 -0.2800293 -0.6811523
vn 0.6762695 -0.2800293 -0.6811523
vn -0.1984863 -0.9599609 0.197876
vn -0.1984863 -0.9599609 0.197876
vn -0.1984863 -0.9599609 0.197876
vn -0.1984863 -0.9599609 0.197876
vn 0.197998 0.9599609 -0.1986084
vn 0.197998 0.9599609 -0.1986084
vn 0.197998 0.9599609 -0.1986084
vn 0.197998 0.9599609 -0.1986084
vn -0.6967773 -0.03004456 -0.7163086
vn -0.6967773 -0.03004456 -0.7163086
vn -0.6967773 -0.03004456 -0.7163086
vn -0.6967773 -0.03004456 -0.7163086
vn 0.6894531 -0.2374268 -0.6845703
vn 0.6894531 -0.2374268 -0.6845703
vn 0.6894531 -0.2374268 -0.6845703
vn 0.6894531 -0.2374268 -0.6845703
vn 0.7006836 0.007663727 0.7133789
vn 0.7006836 0.007663727 0.7133789
vn 0.7006836 0.007663727 0.7133789
vn 0.7006836 0.007663727 0.7133789
vn -0.6845703 0.2375488 0.6894531
vn -0.6845703 0.2375488 0.6894531
vn -0.6845703 0.2375488 0.6894531
vn -0.6845703 0.2375488 0.6894531
vn -0.1673584 -0.9716797 0.1679688
vn -0.1673584 -0.9716797 0.1679688
vn -0.1673584 -0.9716797 0.1679688
vn -0.1673584 -0.9716797 0.1679688
vn 0.1679688 0.9716797 -0.1673584
vn 0.1679688 0.9716797 -0.1673584
vn 0.1679688 0.9716797 -0.1673584
vn 0.1679688 0.9716797 -0.1673584

vt 0.01499939 0.5717773
vt 5.298853E-05 0.5717773
vt 5.298853E-05 0.6933594
vt 0.01499939 0.6933594
vt 0.01499939 0.6933594
vt 0.01503754 0.7104492
vt 0.9848633 0.7104492
vt 0.9848633 0.6933594
vt 0.9848633 0.6933594
vt 1 0.6933594
vt 1 0.5717773
vt 0.9848633 0.5717773
vt 0.9848633 0.8491211
vt 0.9848633 0.8320313
vt 0.01503754 0.8320313
vt 0.01506805 0.8491211
vt 0.01503754 0.8320313
vt 0.9848633 0.8320313
vt 0.9848633 0.7104492
vt 0.01503754 0.7104492
vt 0.9848633 0.5717773
vt 0.01499939 0.5717773
vt 0.01499939 0.6933594
vt 0.9848633 0.6933594
vt 0.01499939 5.298853E-05
vt 5.298853E-05 5.298853E-05
vt 5.298853E-05 0.1216431
vt 0.01499939 0.1216431
vt 0.01499939 0.1216431
vt 0.01503754 0.1385498
vt 0.9848633 0.1385498
vt 0.9848633 0.1216431
vt 0.9848633 0.1216431
vt 1 0.1216431
vt 1 5.298853E-05
vt 0.9848633 5.298853E-05
vt 0.9848633 0.2770996
vt 0.9848633 0.2602539
vt 0.01503754 0.2602539
vt 0.01506805 0.2770996
vt 0.01503754 0.2602539
vt 0.9848633 0.2602539
vt 0.9848633 0.1385498
vt 0.01503754 0.1385498
vt 0.9848633 5.298853E-05
vt 0.01499939 5.298853E-05
vt 0.01499939 0.1216431
vt 0.9848633 0.1216431
vt 0.01499939 0.2858887
vt 5.298853E-05 0.2858887
vt 5.298853E-05 0.4074707
vt 0.01499939 0.4074707
vt 0.01499939 0.4074707
vt 0.01503754 0.4243164
vt 0.9848633 0.4243164
vt 0.9848633 0.4074707
vt 0.9848633 0.4074707
vt 1 0.4074707
vt 1 0.2858887
vt 0.9848633 0.2858887
vt 0.9848633 0.5629883
vt 0.9848633 0.5458984
vt 0.01503754 0.5458984
vt 0.01506805 0.5629883
vt 0.01503754 0.5458984
vt 0.9848633 0.5458984
vt 0.9848633 0.4243164
vt 0.01503754 0.4243164
vt 0.9848633 0.2858887
vt 0.01499939 0.2858887
vt 0.01499939 0.4074707
vt 0.9848633 0.4074707
vt 0.01499939 0.2858887
vt 5.298853E-05 0.2858887
vt 5.298853E-05 0.4074707
vt 0.01499939 0.4074707
vt 0.01499939 0.4074707
vt 0.01503754 0.4243164
vt 0.9848633 0.4243164
vt 0.9848633 0.4074707
vt 0.9848633 0.4074707
vt 1 0.4074707
vt 1 0.2858887
vt 0.9848633 0.2858887
vt 0.9848633 0.5629883
vt 0.9848633 0.5458984
vt 0.01503754 0.5458984
vt 0.01506805 0.5629883
vt 0.01503754 0.5458984
vt 0.9848633 0.5458984
vt 0.9848633 0.4243164
vt 0.01503754 0.4243164
vt 0.9848633 0.2858887
vt 0.01499939 0.2858887
vt 0.01499939 0.4074707
vt 0.9848633 0.4074707

g wood_planks_1_20128_18
usemtl wood_planks_1_20128_18
usemap wood_planks_1_20128_18
f 1/1/1 3/3/3 2/2/2
f 1/1/1 4/4/4 3/3/3
f 5/5/5 7/7/7 6/6/6
f 5/5/5 8/8/8 7/7/7
f 9/9/9 11/11/11 10/10/10
f 9/9/9 12/12/12 11/11/11
f 13/13/13 15/15/15 14/14/14
f 13/13/13 16/16/16 15/15/15
f 17/17/17 19/19/19 18/18/18
f 17/17/17 20/20/20 19/19/19
f 21/21/21 23/23/23 22/22/22
f 21/21/21 24/24/24 23/23/23
f 25/25/25 27/27/27 26/26/26
f 25/25/25 28/28/28 27/27/27
f 29/29/29 31/31/31 30/30/30
f 29/29/29 32/32/32 31/31/31
f 33/33/33 35/35/35 34/34/34
f 33/33/33 36/36/36 35/35/35
f 37/37/37 39/39/39 38/38/38
f 37/37/37 40/40/40 39/39/39
f 41/41/41 43/43/43 42/42/42
f 41/41/41 44/44/44 43/43/43
f 45/45/45 47/47/47 46/46/46
f 45/45/45 48/48/48 47/47/47
f 49/49/49 51/51/51 50/50/50
f 49/49/49 52/52/52 51/51/51
f 53/53/53 55/55/55 54/54/54
f 53/53/53 56/56/56 55/55/55
f 57/57/57 59/59/59 58/58/58
f 57/57/57 60/60/60 59/59/59
f 61/61/61 63/63/63 62/62/62
f 61/61/61 64/64/64 63/63/63
f 65/65/65 67/67/67 66/66/66
f 65/65/65 68/68/68 67/67/67
f 69/69/69 71/71/71 70/70/70
f 69/69/69 72/72/72 71/71/71
f 73/73/73 75/75/75 74/74/74
f 73/73/73 76/76/76 75/75/75
f 77/77/77 79/79/79 78/78/78
f 77/77/77 80/80/80 79/79/79
f 81/81/81 83/83/83 82/82/82
f 81/81/81 84/84/84 83/83/83
f 85/85/85 87/87/87 86/86/86
f 85/85/85 88/88/88 87/87/87
f 89/89/89 91/91/91 90/90/90
f 89/89/89 92/92/92 91/91/91
f 93/93/93 95/95/95 94/94/94
f 93/93/93 96/96/96 95/95/95
